# xmcd
#
# Track frame offsets:
#	150
#	2903
#	24853
#	44220
#	64585
#	85235
#	105651
#	138190
#	162225
#	183723
#	206744
#	226237
#	231312
#	251881
#	270531
#	290373
#	309008
#	334748
#
# Disc length: 4731 seconds
#
# Revision: 1
# Processed by: cddbd v1.5.1PL0 Copyright (c) Steve Scherf et al.
# Submitted via: audiograbber 1.83.01
#
DISCID=fa127912
DTITLE=Mr Selwyn - The Formula
DYEAR=2004
DGENRE=Hip-Hop
TTITLE0=Intro
TTITLE1=Stering
TTITLE2=People
TTITLE3=Live The Vibe
TTITLE4=Formula
TTITLE5=Kasi Rap
TTITLE6=Umvumo (The Chant)
TTITLE7=History
TTITLE8=Remember
TTITLE9=Senthaolele
TTITLE10=Shake
TTITLE11=Debate (Skit)
TTITLE12=Debate
TTITLE13=The Remix
TTITLE14=Hijack
TTITLE15=Soweto Spanish
TTITLE16=Tonite
TTITLE17=I Finally See
EXTD=South African Hip Hop Flavour!
EXTT0=
EXTT1=
EXTT2=
EXTT3=
EXTT4=
EXTT5=
EXTT6=
EXTT7=
EXTT8=
EXTT9=
EXTT10=
EXTT11=
EXTT12=
EXTT13=
EXTT14=
EXTT15=
EXTT16=
EXTT17=
PLAYORDER=
